HIERARCHY
ROOT SpineBase
{
  OFFSET 0.000000 0.000000 0.000000
  CHANNELS 6 Xposition Yposition Zposition Zrotation Xrotation Yrotation
  JOINT SpineMid
  {
    OFFSET 0.000000 28.564124 0.000000
    CHANNELS 3 Zrotation Xrotation Yrotation
    JOINT SpineShoulder
    {
      OFFSET 0.000117 21.295697 -0.866280
      CHANNELS 3 Zrotation Xrotation Yrotation
      JOINT Neck
      {
        OFFSET -0.002269 7.077101 -0.625954
        CHANNELS 3 Zrotation Xrotation Yrotation
        JOINT Head
        {
          OFFSET 5.843985 11.851035 2.574836
          CHANNELS 3 Zrotation Xrotation Yrotation
          End Site
          {
            OFFSET 0 0 0
          }
        }
      }
      JOINT ShoulderLeft
      {
        OFFSET -8.156573 -3.823915 -12.785536
        CHANNELS 3 Zrotation Xrotation Yrotation
        JOINT ElbowLeft
        {
          OFFSET -6.696918 -22.625670 -7.454482
          CHANNELS 3 Zrotation Xrotation Yrotation
          JOINT WristLeft
          {
            OFFSET 0.233580 -21.845097 -2.471895
            CHANNELS 3 Zrotation Xrotation Yrotation
            JOINT HandLeft
            {
              OFFSET 0.354065 -8.375741 -0.399995
              CHANNELS 3 Zrotation Xrotation Yrotation
              JOINT HandTipLeft
              {
                OFFSET 0.520847 -6.885726 -0.858890
                CHANNELS 3 Zrotation Xrotation Yrotation
                End Site
                {
                  OFFSET 0 0 0
                }
              }
              JOINT ThumbLeft
              {
                OFFSET 2.052382 -0.005233 0.409934
                CHANNELS 3 Zrotation Xrotation Yrotation
                End Site
                {
                  OFFSET 0 0 0
                }
              }
            }
          }
        }
      }
      JOINT ShoulderRight
      {
        OFFSET -11.097287 10.788694 -12.335431
        CHANNELS 3 Zrotation Xrotation Yrotation
        JOINT ElbowRight
        {
          OFFSET 9.588515 -20.168396 10.759642
          CHANNELS 3 Zrotation Xrotation Yrotation
          JOINT WristRight
          {
            OFFSET 6.114605 -23.737136 5.895148
            CHANNELS 3 Zrotation Xrotation Yrotation
            JOINT HandRight
            {
              OFFSET 2.916926 -6.328934 -6.110663
              CHANNELS 3 Zrotation Xrotation Yrotation
              JOINT HandTipRight
              {
                OFFSET 0.509199 -5.518910 1.466206
                CHANNELS 3 Zrotation Xrotation Yrotation
                End Site
                {
                  OFFSET 0 0 0
                }
              }
              JOINT ThumbRight
              {
                OFFSET -1.189320 1.033382 -4.233796
                CHANNELS 3 Zrotation Xrotation Yrotation
                End Site
                {
                  OFFSET 0 0 0
                }
              }
            }
          }
        }
      }
    }
  }
  JOINT HipLeft
  {
    OFFSET 1.069688 1.458971 -10.411743
    CHANNELS 3 Zrotation Xrotation Yrotation
    JOINT KneeLeft
    {
      OFFSET -12.957763 -28.088645 1.359117
      CHANNELS 3 Zrotation Xrotation Yrotation
      JOINT AnkleLeft
      {
        OFFSET -9.702276 -37.564624 8.145193
        CHANNELS 3 Zrotation Xrotation Yrotation
        JOINT FootLeft
        {
          OFFSET -2.792892 -3.732623 6.296585
          CHANNELS 3 Zrotation Xrotation Yrotation
          End Site
          {
            OFFSET 0 0 0
          }
        }
      }
    }
  }
  JOINT HipRight
  {
    OFFSET -1.031294 0.999712 3.637613
    CHANNELS 3 Zrotation Xrotation Yrotation
    JOINT KneeRight
    {
      OFFSET 5.473149 -32.020959 3.901558
      CHANNELS 3 Zrotation Xrotation Yrotation
      JOINT AnkleRight
      {
        OFFSET -11.559230 -36.441648 7.710443
        CHANNELS 3 Zrotation Xrotation Yrotation
        JOINT FootRight
        {
          OFFSET 1.637624 -8.228385 -5.451799
          CHANNELS 3 Zrotation Xrotation Yrotation
          End Site
          {
            OFFSET 0 0 0
          }
        }
      }
    }
  }
}
MOTION
Frames: 13
Frame Time: 0.033333
2.253236 79.472123 314.303103 -0.000000 0.000000 -98.505151 -0.000000 0.000000 98.505151 -0.000000 0.000000 0.000000 -0.000000 0.000000 0.000000 0.000000 0.000000 0.000000 -0.000000 0.000000 0.000000 -0.000000 0.000000 0.000000 -0.000000 0.000000 0.000000 -0.000000 0.000000 0.000000 0.000000 0.000000 0.000000 0.000000 0.000000 0.000000 -0.000000 0.000000 0.000000 -0.000000 0.000000 0.000000 -0.000000 0.000000 0.000000 -0.000000 0.000000 0.000000 0.000000 0.000000 0.000000 0.000000 0.000000 0.000000 -0.000000 0.000000 98.505151 -0.000000 0.000000 0.000000 -0.000000 0.000000 0.000000 0.000000 0.000000 0.000000 -0.000000 0.000000 98.505151 -0.000000 0.000000 0.000000 -0.000000 0.000000 0.000000 0.000000 0.000000 0.000000
2.013613 79.632147 314.316428 -0.221892 -0.248539 -99.414289 -0.281486 0.178250 99.414246 -0.000000 0.000000 0.000000 -0.000000 0.000000 0.000000 0.000000 0.000000 0.000000 1.057753 -0.429193 -0.218375 1.554076 -0.508388 -0.077505 2.658069 -0.721216 -0.004915 2.023753 2.447183 -0.711731 0.000000 0.000000 0.000000 0.000000 0.000000 0.000000 -0.000000 0.000000 0.000000 -0.000000 0.000000 0.000000 -0.346683 -1.072267 -0.164440 1.663654 -3.856534 0.082850 0.000000 0.000000 0.000000 0.000000 0.000000 0.000000 -0.281486 0.178250 99.414246 -0.000000 0.000000 0.000000 -0.000000 0.000000 0.000000 0.000000 0.000000 0.000000 -0.281486 0.178250 99.414246 -0.000000 0.000000 0.000000 -3.525984 -7.080295 0.742767 0.000000 0.000000 0.000000
1.795653 79.761324 314.324266 -0.421277 -0.463884 -100.202525 -0.531167 0.332450 100.202361 -0.000000 0.000000 0.000000 -0.000000 0.000000 0.000000 0.000000 0.000000 0.000000 2.003729 -0.764636 -0.423661 3.140289 -1.078654 -0.137339 5.027051 -1.269171 0.015815 3.506769 4.703913 -1.620445 0.000000 0.000000 0.000000 0.000000 0.000000 0.000000 -0.000000 0.000000 0.000000 -0.000000 0.000000 0.000000 -0.569290 -1.966733 -0.373690 2.864868 -6.183988 0.286875 0.000000 0.000000 0.000000 0.000000 0.000000 0.000000 -0.531167 0.332450 100.202361 -0.000000 0.000000 0.000000 -0.000000 0.000000 0.000000 0.000000 0.000000 0.000000 -0.531167 0.332450 100.202361 1.151117 0.376681 0.120767 -8.520256 -15.012959 0.907148 0.000000 0.000000 0.000000
1.599356 79.859656 314.326616 -0.597551 -0.645312 -100.860873 0.046949 0.247945 100.840848 0.081573 -0.099033 -0.011149 0.280954 0.837313 0.023080 0.000000 0.000000 0.000000 3.128711 -0.172297 -0.639393 4.688444 -1.683234 -0.166075 7.074295 -1.628034 0.041310 4.310704 6.739239 -2.566426 0.000000 0.000000 0.000000 0.000000 0.000000 0.000000 0.280954 0.837313 0.023080 -0.000000 0.000000 0.000000 -0.661407 -2.669321 -0.622950 3.668307 -7.295680 0.572312 0.000000 0.000000 0.000000 0.000000 0.000000 0.000000 -0.746342 0.465258 100.860539 -0.000000 0.000000 0.000000 -0.000000 0.000000 0.000000 0.000000 0.000000 0.000000 -0.746342 0.465258 100.860539 1.553556 0.492756 0.166611 -12.644638 -22.069503 0.691304 0.000000 0.000000 0.000000
1.424722 79.927142 314.323479 -0.750206 -0.792244 -101.382001 0.038897 0.294219 101.355060 0.103304 -0.116278 -0.014768 0.365568 1.004955 0.029473 0.000000 0.000000 0.000000 3.963542 -0.161746 -0.847855 6.138489 -2.298710 -0.154280 8.786523 -1.786864 0.052580 4.374224 8.565117 -3.406799 0.000000 0.000000 0.000000 0.000000 0.000000 0.000000 0.365568 1.004955 0.029473 -0.000000 0.000000 0.000000 -0.618443 -3.169807 -0.907779 4.106797 -7.362545 0.923547 0.000000 0.000000 0.000000 0.000000 0.000000 0.000000 -1.813436 0.576231 100.996217 -0.166629 -0.872928 0.392962 0.168218 -0.624696 0.746060 0.000000 0.000000 0.000000 -0.924708 0.579110 101.381487 1.845359 0.562099 0.204386 -15.942731 -27.236717 0.240316 0.000000 0.000000 0.000000
1.271752 79.963782 314.314855 -0.878834 -0.904251 -101.760086 0.020836 0.321352 101.726877 0.122168 -0.125785 -0.018232 0.445522 1.116284 0.035454 0.000000 0.000000 0.000000 4.706739 -0.120140 -1.055073 7.444081 -2.907640 -0.096308 10.156967 -1.731376 0.033613 3.668441 10.213169 -4.025530 0.000000 0.000000 0.000000 0.000000 0.000000 0.000000 0.445522 1.116284 0.035454 -0.000000 0.000000 0.000000 -0.437853 -3.461965 -1.224376 4.184180 -6.416325 1.336681 0.000000 0.000000 0.000000 0.000000 0.000000 0.000000 -2.116662 0.699079 101.309836 0.527091 -1.306718 0.712973 -0.539209 -0.425536 0.654719 0.000000 0.000000 0.000000 -1.064377 0.676099 101.759431 2.029236 0.585515 0.234875 -17.786249 -29.668182 -0.025518 0.000000 0.000000 0.000000
1.092031 79.977812 314.284794 -1.030811 -0.954941 -102.026505 -0.039726 0.321394 101.986295 0.143131 -0.114609 -0.023287 0.564096 1.098227 0.044877 0.000000 0.000000 0.000000 5.581501 -0.055788 -1.334316 8.893992 -3.730105 0.076864 11.018896 -1.186713 -0.045707 0.986764 11.047858 -3.957183 0.000000 0.000000 0.000000 0.000000 0.000000 0.000000 0.564096 1.098227 0.044877 -0.000000 0.000000 0.000000 0.061801 -3.464121 -1.704064 3.698426 -2.055306 2.120784 0.000000 0.000000 0.000000 0.000000 0.000000 0.000000 -2.339055 0.964775 101.540743 0.360698 -1.435564 0.758531 -0.645355 -0.433088 0.485320 0.000000 0.000000 0.000000 -1.063845 1.746412 102.085999 1.124909 0.760779 0.198291 -14.854618 -22.665066 1.283750 0.000000 0.000000 0.000000
0.963967 79.958904 314.228199 -1.122454 -0.935024 -102.020221 -0.073330 0.309140 101.976020 0.172915 -0.110429 -0.025464 -0.345987 0.924019 0.334487 0.000000 0.000000 0.000000 6.254231 0.042360 -1.588567 9.808047 -4.376888 0.298535 11.181809 0.192424 -0.279633 -2.403240 12.491071 -3.495113 0.000000 0.000000 0.000000 0.000000 0.000000 0.000000 0.630894 1.038832 0.050456 -0.000000 0.000000 0.000000 0.547379 -3.533496 -2.201125 1.781474 7.635061 3.071773 0.000000 0.000000 0.000000 0.000000 0.000000 0.000000 -2.419915 1.170791 101.519311 0.263124 -1.482919 0.782101 -0.621935 -0.443608 0.568702 0.000000 0.000000 0.000000 -1.127442 2.090674 102.114623 0.802909 0.661934 0.182489 -13.764646 -20.777422 1.381001 0.000000 0.000000 0.000000
0.883496 79.896541 314.204957 -1.121775 -0.970443 -102.015403 -0.112350 0.266893 101.970245 0.174540 -0.102352 -0.026845 -0.385987 0.974610 0.319225 0.000000 0.000000 0.000000 6.458821 0.341547 -1.755484 10.733983 -5.073748 0.493725 11.857711 1.410258 -0.589711 -4.908483 12.032262 -3.072545 0.000000 0.000000 0.000000 0.000000 0.000000 0.000000 0.661762 1.019256 0.053014 -0.000000 0.000000 0.000000 1.065932 -2.605738 -2.245516 1.164611 8.639766 3.314183 0.000000 0.000000 0.000000 0.000000 0.000000 0.000000 -2.581902 1.197387 101.465244 0.209272 -1.601699 0.835329 -0.498373 -0.457537 0.792035 0.000000 0.000000 0.000000 -1.119470 2.263202 102.115357 0.366048 0.757034 0.114046 -16.044703 -28.608250 -0.237612 0.000000 0.000000 0.000000
0.823904 79.797678 314.204477 -1.127035 -0.999569 -101.844037 -0.161828 0.224775 101.797891 0.158456 -0.089210 -0.029793 -0.920347 1.290016 0.288120 0.000000 0.000000 0.000000 6.758486 0.432454 -1.879963 10.995053 -5.384528 0.641791 11.029501 2.788249 -0.777674 -5.944149 10.357312 -2.559607 0.000000 0.000000 0.000000 0.000000 0.000000 0.000000 0.714304 0.977429 0.057443 -0.000000 0.000000 0.000000 1.478970 -2.403848 -2.541024 2.011752 1.849668 3.358351 0.000000 0.000000 0.000000 0.000000 0.000000 0.000000 -2.725679 1.273655 101.254460 0.094888 -1.711293 0.873581 0.046367 -0.487938 1.697564 0.000000 0.000000 0.000000 -1.250096 2.454540 101.983323 0.128519 0.719808 0.063206 -16.419605 -29.110956 -0.227090 0.000000 0.000000 0.000000
0.775019 79.759427 314.235544 -1.167519 -1.062811 -101.763455 -0.248258 0.163094 101.714247 0.138468 -0.069893 -0.035271 -1.535860 1.614318 0.285086 0.000000 0.000000 0.000000 7.046132 0.381460 -1.931165 10.626199 -5.286123 0.706874 7.641180 4.434610 -0.626155 -3.083579 10.938704 -2.702260 0.000000 0.000000 0.000000 0.000000 0.000000 0.000000 0.817614 0.924051 0.066067 -0.000000 0.000000 0.000000 1.544424 -1.831500 -2.331934 -0.495102 2.645714 2.723100 0.000000 0.000000 0.000000 0.000000 0.000000 0.000000 -2.873584 1.409149 101.156874 -0.061011 -1.783982 0.887589 0.912245 -0.518069 3.136959 0.000000 0.000000 0.000000 -1.760946 2.716131 102.021434 -0.241609 0.398829 -0.068041 -19.232796 -41.957077 -5.589360 0.000000 0.000000 0.000000
0.880838 79.681137 314.440714 -1.044568 -1.356041 -101.919618 -0.361363 0.070888 101.872253 0.070932 -0.004223 -0.037691 -2.810277 2.494073 0.237115 0.000000 0.000000 0.000000 7.720647 0.102206 -2.042889 9.637109 -4.573557 0.716842 2.655174 5.253085 -0.019616 3.227319 12.695447 -3.397505 0.000000 0.000000 0.000000 0.000000 0.000000 0.000000 0.828297 1.022450 0.066251 -0.000000 0.000000 0.000000 1.826769 -1.046077 -2.232368 0.620777 -4.987104 2.389257 0.000000 0.000000 0.000000 0.000000 0.000000 0.000000 -3.482595 0.967431 101.119420 -0.595024 -1.860104 0.817108 2.386463 -0.961899 4.770146 0.000000 0.000000 0.000000 -2.796900 2.446383 102.335667 -0.172584 -0.450821 -0.138702 -17.007368 -38.871258 -4.830498 0.000000 0.000000 0.000000
1.142380 79.533936 314.791009 -0.983382 -1.766547 -102.141244 -0.474254 -0.009925 102.092340 0.017436 0.070699 -0.041125 -3.852302 3.463652 0.181843 0.000000 0.000000 0.000000 8.178982 -0.045364 -2.084730 8.604650 -3.825133 0.677187 -2.938112 7.897981 0.577937 11.601583 7.461650 -3.115627 0.000000 0.000000 0.000000 0.000000 0.000000 0.000000 0.874149 1.231314 0.068384 -0.000000 0.000000 0.000000 1.449664 -0.950047 -1.829421 2.181714 -14.972894 1.666258 0.000000 0.000000 0.000000 0.000000 0.000000 0.000000 -4.412727 0.290473 101.016769 -0.179520 -2.490423 1.134416 3.320290 -1.128341 6.505641 0.000000 0.000000 0.000000 -4.353088 2.332632 102.808152 0.553679 -1.859445 -0.006957 -10.610233 -27.666268 -3.625259 0.000000 0.000000 0.000000
